HIERARCHY
ROOT SpineBase
{
  OFFSET 0.000000 0.000000 0.000000
  CHANNELS 6 Xposition Yposition Zposition Zrotation Xrotation Yrotation
  JOINT SpineMid
  {
    OFFSET -0.000000 20.072536 0.000000
    CHANNELS 3 Zrotation Xrotation Yrotation
    JOINT SpineShoulder
    {
      OFFSET -0.670841 15.040324 0.204861
      CHANNELS 3 Zrotation Xrotation Yrotation
      JOINT Neck
      {
        OFFSET -0.730405 5.135577 0.057247
        CHANNELS 3 Zrotation Xrotation Yrotation
        JOINT Head
        {
          OFFSET 4.528854 7.267228 2.358831
          CHANNELS 3 Zrotation Xrotation Yrotation
          End Site
          {
            OFFSET 0 0 0
          }
        }
      }
      JOINT ShoulderLeft
      {
        OFFSET -4.409726 -0.549663 12.476745
        CHANNELS 3 Zrotation Xrotation Yrotation
        JOINT ElbowLeft
        {
          OFFSET 6.472869 -8.290702 -23.806498
          CHANNELS 3 Zrotation Xrotation Yrotation
          JOINT WristLeft
          {
            OFFSET 16.655871 -7.725969 -18.025274
            CHANNELS 3 Zrotation Xrotation Yrotation
            JOINT HandLeft
            {
              OFFSET 3.085652 -4.642773 -0.485860
              CHANNELS 3 Zrotation Xrotation Yrotation
              JOINT HandTipLeft
              {
                OFFSET 0.758330 -0.555052 -2.867002
                CHANNELS 3 Zrotation Xrotation Yrotation
                End Site
                {
                  OFFSET 0 0 0
                }
              }
              JOINT ThumbLeft
              {
                OFFSET -0.051232 -0.566577 -0.143437
                CHANNELS 3 Zrotation Xrotation Yrotation
                End Site
                {
                  OFFSET 0 0 0
                }
              }
            }
          }
        }
      }
      JOINT ShoulderRight
      {
        OFFSET 2.872991 -7.591536 -18.664965
        CHANNELS 3 Zrotation Xrotation Yrotation
        JOINT ElbowRight
        {
          OFFSET -1.541203 17.362009 7.420849
          CHANNELS 3 Zrotation Xrotation Yrotation
          JOINT WristRight
          {
            OFFSET 1.736603 13.375179 12.702180
            CHANNELS 3 Zrotation Xrotation Yrotation
            JOINT HandRight
            {
              OFFSET 0.875054 -0.098745 3.994293
              CHANNELS 3 Zrotation Xrotation Yrotation
              JOINT HandTipRight
              {
                OFFSET 0.212620 0.404873 0.845134
                CHANNELS 3 Zrotation Xrotation Yrotation
                End Site
                {
                  OFFSET 0 0 0
                }
              }
              JOINT ThumbRight
              {
                OFFSET -0.570564 0.294834 -1.482797
                CHANNELS 3 Zrotation Xrotation Yrotation
                End Site
                {
                  OFFSET 0 0 0
                }
              }
            }
          }
        }
      }
    }
  }
  JOINT HipLeft
  {
    OFFSET -1.418818 3.704466 -16.523212
    CHANNELS 3 Zrotation Xrotation Yrotation
    JOINT KneeLeft
    {
      OFFSET 29.354800 17.166024 -9.200357
      CHANNELS 3 Zrotation Xrotation Yrotation
      JOINT AnkleLeft
      {
        OFFSET -17.203239 -17.454132 -0.202063
        CHANNELS 3 Zrotation Xrotation Yrotation
        JOINT FootLeft
        {
          OFFSET 1.829788 -4.311142 -6.001207
          CHANNELS 3 Zrotation Xrotation Yrotation
          End Site
          {
            OFFSET 0 0 0
          }
        }
      }
    }
  }
  JOINT HipRight
  {
    OFFSET -0.178486 -1.673876 12.290550
    CHANNELS 3 Zrotation Xrotation Yrotation
    JOINT KneeRight
    {
      OFFSET -3.494274 8.208749 -40.101708
      CHANNELS 3 Zrotation Xrotation Yrotation
      JOINT AnkleRight
      {
        OFFSET 18.709499 -10.404556 6.182204
        CHANNELS 3 Zrotation Xrotation Yrotation
        JOINT FootRight
        {
          OFFSET -11.624483 7.506671 0.198340
          CHANNELS 3 Zrotation Xrotation Yrotation
          End Site
          {
            OFFSET 0 0 0
          }
        }
      }
    }
  }
}
MOTION
Frames: 12
Frame Time: 0.033333
134.526195 11.652724 332.504206 11.958293 23.334595 -23.951944 -1.166202 -2.703878 22.060827 -2.714533 -1.204870 1.528545 -7.854374 -29.764570 2.010859 0.000000 0.000000 0.000000 8.225802 -4.128491 -20.869414 -5.103675 -23.238717 5.485723 -11.332365 13.724990 24.500055 -11.164222 -35.549055 -53.162741 0.000000 0.000000 0.000000 0.000000 0.000000 0.000000 -19.296880 -29.888782 -5.901351 90.127515 76.509259 -88.381424 13.260097 -55.788961 -44.144224 -31.952535 21.312367 41.623979 0.000000 0.000000 0.000000 0.000000 0.000000 0.000000 -2.609780 -24.713560 18.377683 49.404937 -5.749014 18.886878 -114.076663 26.142048 105.259780 0.000000 0.000000 0.000000 -37.176122 20.920833 61.066375 -34.831525 -24.481008 -44.303292 -27.089963 -68.589343 -137.238313 0.000000 0.000000 0.000000
135.388759 12.378670 331.683698 13.358043 23.828132 -25.174717 -1.459849 -2.464261 22.881949 -3.225608 -1.263749 1.504754 -7.857555 -28.005234 0.155200 0.000000 0.000000 0.000000 7.975760 -4.310934 -20.954143 -4.750709 -23.972972 4.525055 -15.406641 13.551812 27.350585 -14.717864 -40.430404 -57.295712 0.000000 0.000000 0.000000 0.000000 0.000000 0.000000 -20.232665 -30.623510 -6.408503 83.336942 76.292717 -81.435459 12.064826 -56.166025 -44.151855 -33.705192 23.764717 41.228215 0.000000 0.000000 0.000000 0.000000 0.000000 0.000000 -3.799027 -24.854032 17.065161 50.480341 -4.623576 20.137594 -109.221866 18.863916 99.883028 0.000000 0.000000 0.000000 -37.831168 20.110811 59.500367 -35.178380 -24.533476 -43.690748 3.588479 -67.096079 -95.897672 0.000000 0.000000 0.000000
136.797244 13.030784 331.064496 15.722766 23.977233 -28.139201 -1.973259 -2.211414 25.188186 -4.194581 -1.141907 1.394442 -8.258086 -26.946019 -1.345794 0.000000 0.000000 0.000000 7.296639 -4.841101 -20.979485 -4.455157 -24.644331 3.227296 -19.079925 15.604933 31.932598 -21.092017 -44.803425 -67.295766 0.000000 0.000000 0.000000 0.000000 0.000000 0.000000 -21.520920 -31.597611 -7.064448 79.197830 76.050789 -77.139489 11.486335 -48.402850 -45.690715 -25.090861 17.063150 39.680251 0.000000 0.000000 0.000000 0.000000 0.000000 0.000000 -3.270153 -24.470981 19.065065 47.897942 -4.630082 20.585006 -100.395695 7.069952 91.497460 0.000000 0.000000 0.000000 -38.701037 17.576281 58.271612 -35.032270 -23.914384 -42.606530 36.129821 -64.574023 -57.841348 0.000000 0.000000 0.000000
138.208615 13.537770 330.432617 17.771071 24.407383 -30.541462 -1.817497 -2.023530 27.106240 -5.367992 -1.018089 1.226323 -9.158235 -26.904319 -2.191385 0.000000 0.000000 0.000000 5.955628 -6.085306 -20.757220 -4.278436 -24.769738 1.438362 -23.557573 21.913207 40.532308 -32.336210 -49.341041 -79.154416 0.000000 0.000000 0.000000 0.000000 0.000000 0.000000 -21.967570 -31.367084 -7.348390 63.681909 75.141369 -61.877430 11.296099 -42.819638 -48.474967 -26.931337 20.696219 36.823567 0.000000 0.000000 0.000000 0.000000 0.000000 0.000000 -1.402221 -23.900105 22.008712 42.710743 -5.821346 20.596108 -90.896100 -5.714528 82.927560 0.000000 0.000000 0.000000 -39.129410 15.201429 56.838070 -34.875124 -23.382520 -41.407747 56.174003 -54.807779 -31.084830 0.000000 0.000000 0.000000
138.539051 13.503813 330.567293 17.693098 23.857108 -31.838174 -1.418365 -1.317003 28.594301 -5.422510 -0.440940 1.252149 -10.205320 -27.760701 -2.222908 0.000000 0.000000 0.000000 4.374952 -8.109084 -20.494768 -4.231415 -23.823213 -0.078833 -19.672799 25.142971 41.006189 -29.697074 -46.983054 -72.824629 0.000000 0.000000 0.000000 0.000000 0.000000 0.000000 -22.753395 -31.571583 -7.668659 60.858587 74.604809 -58.974281 11.276997 -42.725630 -49.554961 -28.327076 23.996543 35.381517 0.000000 0.000000 0.000000 0.000000 0.000000 0.000000 1.018129 -22.420185 25.549144 36.560013 -7.302271 18.814355 -85.755506 -9.040668 80.426366 0.000000 0.000000 0.000000 -39.390460 14.314280 58.479288 -34.822643 -22.512916 -41.568031 35.155771 -58.603044 -53.345031 0.000000 0.000000 0.000000
138.066655 13.082496 331.149279 16.483069 23.178505 -31.436743 -0.881656 -0.749014 28.676464 -5.565163 -0.018377 1.223877 -10.543565 -29.941990 -0.821138 0.000000 0.000000 0.000000 4.765234 -8.340624 -20.480782 -4.538436 -24.564331 -1.179744 -23.097530 27.204128 45.727428 -35.534185 -49.063803 -80.828200 0.000000 0.000000 0.000000 0.000000 0.000000 0.000000 -22.394087 -31.888776 -7.644467 63.047937 74.870455 -61.109323 11.545830 -44.690218 -50.295007 -29.183831 27.567818 33.858684 0.000000 0.000000 0.000000 0.000000 0.000000 0.000000 1.943525 -21.779384 26.934409 32.226603 -7.797879 16.177607 -83.703968 -7.867933 82.791327 0.000000 0.000000 0.000000 -39.302646 14.487267 61.698022 -34.606163 -21.232505 -42.817938 10.898165 -62.135141 -83.640433 0.000000 0.000000 0.000000
138.209385 12.446787 331.764158 17.461312 23.130734 -30.377652 -1.630187 -1.761388 27.232411 -5.397169 0.337137 1.248205 -11.451412 -32.406373 0.788590 0.000000 0.000000 0.000000 5.310135 -7.711770 -20.920594 -5.077726 -26.028698 -1.336640 -30.600157 30.918300 54.846632 -39.862828 -51.666095 -88.731581 0.000000 0.000000 0.000000 0.000000 0.000000 0.000000 -22.537565 -32.331262 -7.710289 67.962681 75.486755 -65.991474 12.526589 -42.909652 -51.435014 -26.418757 24.389474 34.398796 0.000000 0.000000 0.000000 0.000000 0.000000 0.000000 1.855935 -22.262809 27.713273 27.369146 -8.421795 13.357648 -80.706916 -10.219646 83.903062 0.000000 0.000000 0.000000 -38.988578 13.580330 62.205085 -33.802091 -19.454323 -43.853941 -7.647442 -46.869149 -91.798373 0.000000 0.000000 0.000000
138.380131 12.055083 332.316347 17.631472 22.503358 -33.114527 -1.474790 -2.380930 30.024072 -5.427658 0.320511 1.183857 -10.756202 -30.860205 0.929710 0.000000 0.000000 0.000000 4.997310 -7.432537 -21.015336 -4.521385 -24.603979 -1.359768 -32.164171 27.989645 54.147586 -42.916692 -52.217528 -93.117944 0.000000 0.000000 0.000000 0.000000 0.000000 0.000000 -22.206138 -31.779725 -7.237635 71.871631 76.014333 -69.984388 12.888143 -44.288927 -51.512324 -28.604255 25.185416 35.167838 0.000000 0.000000 0.000000 0.000000 0.000000 0.000000 2.984669 -21.888289 31.800699 23.942935 -8.774437 11.847169 -75.833604 -16.199451 81.700251 0.000000 0.000000 0.000000 -38.272529 11.297656 62.855936 -32.859078 -19.253510 -42.145154 -10.535629 -45.221602 -94.491190 0.000000 0.000000 0.000000
138.426460 11.872146 332.706509 17.733387 22.010612 -35.722394 -1.242837 -2.805646 32.700493 -5.406642 -0.007943 1.122720 -10.462394 -28.751447 0.677529 0.000000 0.000000 0.000000 4.577541 -6.610422 -20.716270 -4.521573 -23.775039 -0.943405 -26.068802 26.464199 47.476013 -53.350921 -50.174163 -100.581306 0.000000 0.000000 0.000000 0.000000 0.000000 0.000000 -21.979911 -31.126301 -6.755003 88.906178 76.953629 -87.225214 13.820070 -50.338198 -48.063562 -30.684450 24.295560 37.544012 0.000000 0.000000 0.000000 0.000000 0.000000 0.000000 3.717088 -21.623837 35.006953 22.957981 -8.857084 11.302231 -74.803113 -17.469980 82.202812 0.000000 0.000000 0.000000 -39.168524 10.660196 63.405358 -32.937132 -20.518731 -40.624827 -12.613197 -51.908112 -105.752819 0.000000 0.000000 0.000000
138.374021 12.197070 332.575921 17.835352 22.628238 -32.341967 -1.158208 -3.261320 29.265809 -5.401554 -0.486992 1.095108 -10.490834 -28.156274 0.689709 0.000000 0.000000 0.000000 4.547383 -6.248679 -20.772968 -4.368350 -23.158811 -0.228461 -20.902246 22.532715 40.444255 -45.121634 -49.828230 -87.838829 0.000000 0.000000 0.000000 0.000000 0.000000 0.000000 -21.899909 -30.923243 -6.587132 91.865303 77.024667 -90.234147 14.544698 -51.772193 -48.904049 -27.264996 18.912584 41.044083 0.000000 0.000000 0.000000 0.000000 0.000000 0.000000 2.644206 -22.390161 31.427288 23.268667 -8.779273 11.186281 -76.995227 -14.824867 85.412544 0.000000 0.000000 0.000000 -39.504510 13.142043 61.393301 -33.827304 -20.997189 -42.652020 5.791886 -56.819805 -84.302096 0.000000 0.000000 0.000000
138.236401 12.277307 332.402302 17.524569 22.704808 -31.514115 -1.173438 -2.961090 28.497539 -5.386830 -1.199276 1.066772 -10.363486 -27.216427 0.474387 0.000000 0.000000 0.000000 4.675664 -6.017552 -20.906161 -3.962099 -22.029497 0.768190 -19.162112 21.644948 38.108824 -46.312684 -49.171999 -88.981952 0.000000 0.000000 0.000000 0.000000 0.000000 0.000000 -21.663143 -30.584614 -6.368643 82.534026 76.823921 -80.812719 13.027511 -46.671894 -48.895251 -18.667668 12.881132 40.994046 0.000000 0.000000 0.000000 0.000000 0.000000 0.000000 2.682920 -21.970563 30.212620 24.838757 -9.011110 12.470439 -82.393431 -6.971148 90.465609 0.000000 0.000000 0.000000 -39.371148 13.913899 60.902435 -33.989162 -21.114463 -42.534116 35.055388 -59.557148 -54.130614 0.000000 0.000000 0.000000
138.118024 12.520806 332.046222 17.432439 23.361914 -29.707218 -1.076147 -3.215213 26.663874 -5.196781 -1.551434 1.094442 -10.527779 -26.700576 0.171424 0.000000 0.000000 0.000000 4.506145 -6.305159 -21.093354 -3.728534 -21.272360 1.214864 -18.227816 21.459018 37.241566 -50.883081 -49.316470 -91.402314 0.000000 0.000000 0.000000 0.000000 0.000000 0.000000 -22.162861 -30.914507 -6.480440 67.783281 75.411915 -65.646410 11.729598 -36.701336 -50.969057 -9.273908 5.680908 41.656147 0.000000 0.000000 0.000000 0.000000 0.000000 0.000000 2.472655 -22.203144 27.941621 27.440942 -9.117382 13.919855 -90.710297 3.953005 96.591585 0.000000 0.000000 0.000000 -39.096033 14.949570 59.786801 -33.682212 -21.791711 -41.666091 50.951716 -61.118488 -39.920387 0.000000 0.000000 0.000000
